<svg width="634" height="548" viewBox="0 0 634 548" fill="none" xmlns="http://www.w3.org/2000/svg">
<path d="M186.012 499.137C190.219 499.137 194.425 497.034 198.632 494.931C255.419 457.073 295.38 404.492 318.516 345.602C341.651 404.492 383.716 457.073 438.4 494.931C442.606 497.034 446.813 499.137 451.019 499.137C455.225 499.137 459.432 497.034 461.535 494.931C421.574 528.582 373.2 547.511 318.516 547.511C263.832 547.511 213.354 526.479 173.393 494.931C177.599 497.034 181.806 499.137 186.012 499.137Z" fill="white"/>
<path d="M24.0642 274.092H89.2642C93.4707 238.337 106.09 202.582 125.019 173.137L70.3352 120.557C61.9223 112.144 61.9223 99.5243 70.3352 91.1114C78.7481 82.6985 91.3674 82.6985 99.7803 91.1114L150.258 139.486C162.877 124.763 179.703 112.144 194.426 101.628C207.045 42.7371 257.522 0.672607 318.516 0.672607C379.51 0.672607 429.987 42.7371 440.503 101.628C457.329 112.144 472.052 124.763 484.671 137.382L535.148 91.1114C543.561 82.6985 556.181 82.6985 564.594 91.1114C573.006 99.5243 573.006 112.144 564.594 120.557L512.013 171.034C530.942 200.479 543.561 236.234 547.768 274.092H612.968C625.587 274.092 634 282.505 634 295.124C634 307.744 625.587 316.157 612.968 316.157H549.871C547.768 356.118 537.252 393.976 520.426 425.524L566.697 469.692C575.11 478.105 575.11 490.724 566.697 499.137C560.387 503.344 556.181 505.447 549.871 505.447C545.664 505.447 539.355 503.344 535.148 499.137L495.187 461.279C486.774 471.795 476.258 480.208 467.845 490.724C467.845 490.724 467.845 490.724 467.845 488.621C474.155 478.105 472.052 465.486 461.535 459.176C383.716 406.595 337.445 322.466 337.445 234.131V84.8017C337.445 72.1823 329.032 63.7694 316.413 63.7694C303.793 63.7694 295.38 72.1823 295.38 84.8017V234.131C295.38 322.466 249.109 406.595 171.29 459.176C160.774 465.486 158.671 478.105 164.98 488.621L167.084 490.724C156.567 480.208 146.051 471.795 137.638 459.176L95.5739 499.137C91.3674 503.344 87.161 505.447 80.8513 505.447C74.5416 505.447 70.3352 503.344 66.1287 499.137C57.7158 490.724 57.7158 478.105 66.1287 469.692L114.503 425.524C97.6771 393.976 87.161 356.118 85.0577 318.26H21.9609C9.34156 318.26 0.928652 309.847 0.928652 297.228C0.928652 284.608 11.4448 274.092 24.0642 274.092Z" fill="white"/>
</svg>
